<svg width="101" height="21" viewBox="0 0 101 21" fill="none" xmlns="http://www.w3.org/2000/svg">
<path d="M9.15113 3.53601C9.4505 2.61475 10.7538 2.61475 11.0532 3.53601L12.123 6.82801C12.2569 7.24 12.6408 7.51894 13.074 7.51896L16.5355 7.51909C17.5041 7.51913 17.9069 8.75867 17.1232 9.32808L14.3229 11.3628C13.9725 11.6174 13.8258 12.0688 13.9597 12.4808L15.0292 15.7728C15.3285 16.6941 14.2741 17.4602 13.4904 16.8909L10.6899 14.8564C10.3395 14.6018 9.86489 14.6018 9.51442 14.8564L6.71397 16.8909C5.93026 17.4602 4.87584 16.6941 5.17514 15.7728L6.24467 12.4808C6.37852 12.0688 6.23187 11.6174 5.88141 11.3628L3.08112 9.32808C2.29746 8.75867 2.70021 7.51913 3.6689 7.51909L7.13035 7.51896C7.56355 7.51894 7.94747 7.24 8.08136 6.82801L9.15113 3.53601Z" fill="#FDE047"/>
<path d="M29.1511 3.53601C29.4505 2.61475 30.7538 2.61475 31.0532 3.53601L32.123 6.82801C32.2569 7.24 32.6408 7.51894 33.074 7.51896L36.5355 7.51909C37.5041 7.51913 37.9069 8.75867 37.1232 9.32808L34.3229 11.3628C33.9725 11.6174 33.8258 12.0688 33.9597 12.4808L35.0292 15.7728C35.3285 16.6941 34.2741 17.4602 33.4904 16.8909L30.6899 14.8564C30.3395 14.6018 29.8649 14.6018 29.5144 14.8564L26.714 16.8909C25.9303 17.4602 24.8758 16.6941 25.1751 15.7728L26.2447 12.4808C26.3785 12.0688 26.2319 11.6174 25.8814 11.3628L23.0811 9.32808C22.2975 8.75867 22.7002 7.51913 23.6689 7.51909L27.1303 7.51896C27.5635 7.51894 27.9475 7.24 28.0814 6.82801L29.1511 3.53601Z" fill="#FDE047"/>
<path d="M49.1511 3.53601C49.4505 2.61475 50.7538 2.61475 51.0532 3.53601L52.123 6.82801C52.2569 7.24 52.6408 7.51894 53.074 7.51896L56.5355 7.51909C57.5041 7.51913 57.9069 8.75867 57.1232 9.32808L54.3229 11.3628C53.9725 11.6174 53.8258 12.0688 53.9597 12.4808L55.0292 15.7728C55.3285 16.6941 54.2741 17.4602 53.4904 16.8909L50.6899 14.8564C50.3395 14.6018 49.8649 14.6018 49.5144 14.8564L46.714 16.8909C45.9303 17.4602 44.8758 16.6941 45.1751 15.7728L46.2447 12.4808C46.3785 12.0688 46.2319 11.6174 45.8814 11.3628L43.0811 9.32808C42.2975 8.75867 42.7002 7.51913 43.6689 7.51909L47.1303 7.51896C47.5635 7.51894 47.9475 7.24 48.0814 6.82801L49.1511 3.53601Z" fill="#FDE047"/>
<path d="M69.1511 3.53601C69.4505 2.61475 70.7538 2.61475 71.0532 3.53601L72.123 6.82801C72.2569 7.24 72.6408 7.51894 73.074 7.51896L76.5355 7.51909C77.5041 7.51913 77.9069 8.75867 77.1232 9.32808L74.3229 11.3628C73.9725 11.6174 73.8258 12.0688 73.9597 12.4808L75.0292 15.7728C75.3285 16.6941 74.2741 17.4602 73.4904 16.8909L70.6899 14.8564C70.3395 14.6018 69.8649 14.6018 69.5144 14.8564L66.714 16.8909C65.9303 17.4602 64.8758 16.6941 65.1751 15.7728L66.2447 12.4808C66.3785 12.0688 66.2319 11.6174 65.8814 11.3628L63.0811 9.32808C62.2975 8.75867 62.7002 7.51913 63.6689 7.51909L67.1303 7.51896C67.5635 7.51894 67.9475 7.24 68.0814 6.82801L69.1511 3.53601Z" fill="#FDE047"/>
<path d="M89.1511 3.53601C89.4505 2.61475 90.7538 2.61475 91.0532 3.53601L92.123 6.82801C92.2569 7.24 92.6408 7.51894 93.074 7.51896L96.5355 7.51909C97.5041 7.51913 97.9069 8.75867 97.1232 9.32808L94.3229 11.3628C93.9725 11.6174 93.8258 12.0688 93.9597 12.4808L95.0292 15.7728C95.3285 16.6941 94.2741 17.4602 93.4904 16.8909L90.6899 14.8564C90.3395 14.6018 89.8649 14.6018 89.5144 14.8564L86.714 16.8909C85.9303 17.4602 84.8758 16.6941 85.1751 15.7728L86.2447 12.4808C86.3785 12.0688 86.2319 11.6174 85.8814 11.3628L83.0811 9.32808C82.2975 8.75867 82.7002 7.51913 83.6689 7.51909L87.1303 7.51896C87.5635 7.51894 87.9475 7.24 88.0814 6.82801L89.1511 3.53601Z" fill="#FDE047"/>
</svg>
