<svg width="18" height="18" viewBox="0 0 18 18" fill="none" xmlns="http://www.w3.org/2000/svg">
<path d="M6.66724 8.99994L8.3339 10.6666L11.6672 7.33327M5.69619 2.91414C6.29413 2.86643 6.86178 2.6313 7.31833 2.24223C8.38374 1.3343 9.95073 1.3343 11.0161 2.24223C11.4727 2.6313 12.0403 2.86643 12.6383 2.91414C14.0336 3.0255 15.1417 4.13353 15.253 5.52889C15.3007 6.12683 15.5359 6.69449 15.9249 7.15104C16.8329 8.21644 16.8329 9.78343 15.9249 10.8488C15.5359 11.3054 15.3007 11.873 15.253 12.471C15.1417 13.8664 14.0336 14.9744 12.6383 15.0857C12.0403 15.1334 11.4727 15.3686 11.0161 15.7576C9.95073 16.6656 8.38374 16.6656 7.31833 15.7576C6.86178 15.3686 6.29413 15.1334 5.69619 15.0857C4.30082 14.9744 3.19279 13.8664 3.08144 12.471C3.03373 11.873 2.7986 11.3054 2.40953 10.8488C1.50159 9.78343 1.50159 8.21644 2.40953 7.15104C2.7986 6.69449 3.03373 6.12683 3.08144 5.52889C3.19279 4.13353 4.30082 3.0255 5.69619 2.91414Z" stroke="#111827" stroke-width="2" stroke-linecap="round" stroke-linejoin="round"/>
</svg>
