<svg width="18" height="18" viewBox="0 0 18 18" fill="none" xmlns="http://www.w3.org/2000/svg">
<path d="M7.79899 3.53463V14.6663C7.79899 15.4762 7.14241 16.1328 6.33247 16.1328C5.7127 16.1328 5.15984 15.7432 4.95139 15.1595L3.16272 10.0352M13.6323 9.46615C15.013 9.46615 16.1323 8.34686 16.1323 6.96615C16.1323 5.58543 15.013 4.46615 13.6323 4.46615M3.16272 10.0352C1.96924 9.52789 1.13232 8.34475 1.13232 6.96614C1.13232 5.1252 2.6247 3.63281 4.46565 3.63281H5.99239C9.40959 3.63281 12.3464 2.6044 13.6323 1.13281L13.6323 12.7995C12.3464 11.3279 9.40959 10.2995 5.99239 10.2995L4.46564 10.2995C4.00331 10.2995 3.56296 10.2053 3.16272 10.0352Z" stroke="#111827" stroke-width="2" stroke-linecap="round" stroke-linejoin="round"/>
</svg>
