<svg width="18" height="18" viewBox="0 0 18 18" fill="none" xmlns="http://www.w3.org/2000/svg">
<path d="M7.73377 2.55945C8.03314 1.63819 9.33648 1.63819 9.63586 2.55945L10.7056 5.85145C10.8395 6.26344 11.2234 6.54238 11.6566 6.5424L15.1181 6.54253C16.0868 6.54256 16.4895 7.78211 15.7059 8.35152L12.9056 10.3862C12.5551 10.6409 12.4085 11.0922 12.5423 11.5042L13.6118 14.7963C13.9111 15.7176 12.8567 16.4836 12.073 15.9143L9.27257 13.8798C8.92209 13.6252 8.44753 13.6252 8.09706 13.8798L5.29661 15.9143C4.5129 16.4836 3.45848 15.7176 3.75779 14.7963L4.82731 11.5042C4.96116 11.0922 4.81451 10.6409 4.46406 10.3862L1.66376 8.35152C0.880097 7.78211 1.28285 6.54256 2.25154 6.54253L5.71299 6.5424C6.14619 6.54238 6.53012 6.26344 6.664 5.85145L7.73377 2.55945Z" stroke="#111827" stroke-width="2"/>
</svg>
