<svg width="73" height="22" viewBox="0 0 73 22" fill="none" xmlns="http://www.w3.org/2000/svg">
<g clip-path="url(#clip0_301_8008)">
<path d="M0.915039 0.413086H22.692V21.4131H0.915039V0.413086ZM26.0275 21.4131H47.8045V0.413086H26.0275V21.4131ZM51.14 21.4131H72.917V0.413086H51.14V21.4131Z" fill="#262626"/>
<path d="M39.4053 10.4364C39.4053 10.4364 41.3039 9.60893 41.2881 7.41036C41.2881 7.41036 41.5774 3.8103 36.916 3.37018H31.7433V18.4641H37.6731C37.6731 18.4641 42.6278 18.4803 42.6278 14.2048C42.6278 14.2048 42.7428 11.2984 39.4072 10.4364H39.4053ZM34.3673 5.72086H36.482C38.6779 5.8385 38.5967 7.51177 38.5967 7.51177C38.5967 9.59067 36.1688 9.62515 36.1688 9.62515H34.3693V5.72086H34.3673ZM39.9166 13.9858C39.9166 16.2675 37.1419 16.1316 37.1419 16.1316H34.3673V12.0083H37.1419C39.9998 11.9921 39.9166 13.9858 39.9166 13.9858Z" fill="white"/>
<path d="M14.3007 10.4364C14.3007 10.4364 16.1994 9.60893 16.1835 7.41036C16.1835 7.41036 16.4729 3.8103 11.8115 3.37018H6.63873V18.4641H12.5685C12.5685 18.4641 17.5233 18.4803 17.5233 14.2048C17.5233 14.2048 17.6382 11.2984 14.3027 10.4364H14.3007ZM9.26275 5.72086H11.3774C13.5734 5.8385 13.4921 7.51177 13.4921 7.51177C13.4921 9.59067 11.0643 9.62515 11.0643 9.62515H9.26473V5.72086H9.26275ZM14.812 13.9858C14.812 16.2675 12.0374 16.1316 12.0374 16.1316H9.26275V12.0083H12.0374C14.8953 11.9921 14.812 13.9858 14.812 13.9858Z" fill="white"/>
<path d="M68.4736 4.45327V7.24204C68.4736 7.24204 65.8139 5.56878 62.8748 5.5343C62.8748 5.5343 57.3909 5.42478 57.1431 10.9131C57.1431 10.9131 56.945 15.9613 62.8074 16.2493C62.8074 16.2493 65.2689 16.5535 68.6044 14.3732V17.2634C68.6044 17.2634 64.1293 19.9852 58.9427 17.8881C58.9427 17.8881 54.5826 16.2574 54.4181 10.9131C54.4181 10.9131 54.2357 5.41666 60.0506 3.59128C60.0506 3.59128 61.6024 2.98282 64.3949 3.25257C64.3949 3.25257 66.0636 3.42091 68.4736 4.45327Z" fill="white"/>
</g>
<defs>
<clipPath id="clip0_301_8008">
<rect width="72" height="21" fill="white" transform="translate(0.915039 0.413086)"/>
</clipPath>
</defs>
</svg>
