<svg width="90" height="30" viewBox="0 0 90 30" fill="none" xmlns="http://www.w3.org/2000/svg">
<path fill-rule="evenodd" clip-rule="evenodd" d="M22.1528 10.6165H11.7254V13.7063H19.1114C18.7494 18.051 15.1288 19.8853 11.7254 19.8853C7.35642 19.8853 3.56689 16.4579 3.56689 11.6544C3.56689 6.97179 7.1874 3.37536 11.7254 3.37536C15.2252 3.37536 17.3011 5.62012 17.3011 5.62012L19.4735 3.37536C19.4735 3.37536 16.6978 0.285645 11.6288 0.285645C5.18405 0.285645 0.187622 5.74083 0.187622 11.6063C0.187622 17.3751 4.89432 22.9991 11.7978 22.9991C17.8804 22.9991 22.3218 18.8234 22.3218 12.6682C22.3218 11.3649 22.1528 10.6165 22.1528 10.6165Z" fill="#262626"/>
<path fill-rule="evenodd" clip-rule="evenodd" d="M30.7215 11.244C32.8215 11.244 34.8249 12.9335 34.8249 15.6853C34.8249 18.3646 32.8456 20.1265 30.7215 20.1265C28.3801 20.1265 26.5458 18.268 26.5458 15.6853C26.5458 13.1268 28.3561 11.244 30.7215 11.244ZM30.6732 8.37158C26.4008 8.37158 23.3353 11.7268 23.3353 15.6128C23.3353 19.5715 26.3043 22.9748 30.7215 22.9748C34.7283 22.9748 37.9869 19.9094 37.9869 15.7094C38.011 10.8578 34.1972 8.37158 30.6732 8.37158Z" fill="#262626"/>
<path fill-rule="evenodd" clip-rule="evenodd" d="M46.701 11.244C48.801 11.244 50.8044 12.9335 50.8044 15.6853C50.8044 18.3646 48.8251 20.1265 46.701 20.1265C44.3596 20.1265 42.5253 18.268 42.5253 15.6853C42.5011 13.1268 44.3356 11.244 46.701 11.244ZM46.6526 8.37158C42.3803 8.37158 39.3148 11.7268 39.3148 15.6128C39.3148 19.5715 42.2838 22.9748 46.701 22.9748C50.7078 22.9748 53.9664 19.9094 53.9664 15.7094C53.9664 10.8578 50.1526 8.37158 46.6526 8.37158Z" fill="#262626"/>
<mask id="mask0_301_8134" style="mask-type:luminance" maskUnits="userSpaceOnUse" x="55" y="8" width="15" height="22">
<path fill-rule="evenodd" clip-rule="evenodd" d="M55.2943 8.37158H69.3183V29.5402H55.2943V8.37158Z" fill="white"/>
</mask>
<g mask="url(#mask0_301_8134)">
<path fill-rule="evenodd" clip-rule="evenodd" d="M62.5841 11.244C64.5151 11.244 66.4944 12.8854 66.4944 15.6853C66.4944 18.5335 64.5151 20.1025 62.5601 20.1025C60.4601 20.1025 58.529 18.4128 58.529 15.7094C58.5049 12.9094 60.5325 11.244 62.5841 11.244ZM62.2941 8.37158C58.3598 8.37158 55.2943 11.7992 55.2943 15.6611C55.2943 20.0542 58.8667 22.9748 62.2459 22.9748C64.3217 22.9748 65.4321 22.1541 66.2526 21.1887V22.637C66.2526 25.1472 64.7321 26.6679 62.4148 26.6679C60.1943 26.6679 59.0598 25.0024 58.6736 24.061L55.8736 25.2439C56.8632 27.3437 58.8667 29.5403 62.439 29.5403C66.3493 29.5403 69.3183 27.0782 69.3183 21.937V8.80609H66.2526V10.0371C65.3114 9.04751 64.0079 8.37158 62.2941 8.37158Z" fill="#262626"/>
</g>
<path fill-rule="evenodd" clip-rule="evenodd" d="M83.0522 11.1718C84.3798 11.1718 85.3453 11.8718 85.7556 12.7408L79.2144 15.4682C78.9246 13.3441 80.9282 11.1718 83.0522 11.1718ZM82.9073 8.37158C79.2142 8.37158 76.1005 11.3163 76.1005 15.6611C76.1005 20.2715 79.5764 22.9989 83.2694 22.9989C86.359 22.9989 88.2659 21.3094 89.3761 19.7887L86.8416 18.0991C86.19 19.1129 85.0797 20.1025 83.2694 20.1025C81.2176 20.1025 80.2764 18.968 79.6971 17.8818L89.4968 13.8268L88.9899 12.6439C88.0485 10.3025 85.828 8.37158 82.9073 8.37158Z" fill="#262626"/>
<path fill-rule="evenodd" clip-rule="evenodd" d="M71.4418 22.565H74.652V1.03418H71.4418V22.565Z" fill="#262626"/>
</svg>
