<svg width="27" height="25" viewBox="0 0 47 45" fill="none" xmlns="http://www.w3.org/2000/svg">
<g clip-path="url(#clip0_301_8025)">
<path fill-rule="evenodd" clip-rule="evenodd" d="M32.1961 5.96744C28.8262 2.59699 24.4015 0.913086 19.1085 0.913086C13.8156 0.913086 9.29352 2.59699 5.92357 5.96744C2.55633 9.33789 0.920044 13.7397 0.920044 18.9809C0.920044 24.2221 2.65099 28.2477 6.02094 31.8075C9.48554 35.3648 13.8156 37.1434 19.1085 37.1434C24.4015 37.1434 28.7315 35.3648 32.0988 31.8075C35.466 28.2503 37.1997 24.0379 37.1997 18.9809C37.1997 13.9239 35.5634 9.33789 32.1961 5.96744ZM27.5767 27.7793C25.5563 30.5867 22.6705 31.9917 19.1085 31.9917C15.5466 31.9917 12.6608 30.5867 10.6404 27.7793C8.81209 25.3455 7.94662 22.4434 7.94662 18.9783C7.94662 15.5131 8.90946 12.5189 10.8324 9.9904C12.9501 7.36982 15.7413 6.05953 19.1085 6.05953C22.4758 6.05953 25.1723 7.36982 27.2873 9.9904C29.213 12.5189 30.1731 15.5131 30.1731 18.9783C30.1731 22.4434 29.3076 25.3429 27.574 27.7793H27.5767Z" fill="#292524"/>
<path fill-rule="evenodd" clip-rule="evenodd" d="M40.4723 42.4793C42.4926 40.606 43.7448 39.2957 44.4183 38.359C45.7652 36.6751 46.4386 35.1754 46.4386 33.773C46.4386 30.7762 44.8023 29.2791 41.5298 29.2791C39.8935 29.2791 38.2572 29.6527 36.8156 30.4025L37.105 32.931C38.3572 32.0891 39.6068 31.7128 40.667 31.7128C41.4378 31.7128 42.0139 31.8996 42.4953 32.1812C42.9767 32.5548 43.2661 33.1178 43.2661 33.773C43.2661 34.9912 42.3033 36.5804 40.475 38.5484L36.5289 42.2925V44.9131H46.9227V42.4793H40.475H40.4723Z" fill="#292524"/>
</g>
<defs>
<clipPath id="clip0_301_8025">
<rect width="46" height="44" fill="white" transform="translate(0.920044 0.913086)"/>
</clipPath>
</defs>
</svg>
