<svg width="81" height="33" viewBox="0 0 81 33" fill="none" xmlns="http://www.w3.org/2000/svg">
<g clip-path="url(#clip0_301_8013)">
<path d="M57.7924 0.913086C50.8102 0.913086 44.5691 3.14896 40.4176 6.66438C36.2679 3.14896 30.025 0.913086 23.0428 0.913086C10.5479 0.913086 0.417603 8.07701 0.417603 16.914C0.417603 25.7511 10.5479 32.915 23.0428 32.915C30.025 32.915 36.2679 30.6772 40.4176 27.1637C44.5673 30.6791 50.8102 32.915 57.7924 32.915C70.2892 32.915 80.4176 25.7511 80.4176 16.914C80.4176 8.07701 70.2892 0.913086 57.7924 0.913086Z" fill="#292524"/>
<path d="M11.9182 15.104C10.5735 14.7238 9.759 14.4405 9.759 13.7161C9.759 13.1153 10.3314 12.7275 11.2175 12.7275C12.1035 12.7275 12.9951 13.0773 13.7344 13.7142L13.7546 13.7313L13.8408 11.9556V11.9479L13.8335 11.9441C13.1254 11.5335 12.4154 11.2616 11.2523 11.2616C10.4121 11.2616 9.64526 11.4878 9.09674 11.8985C8.49318 12.3491 8.17397 12.9955 8.17397 13.7694C8.17397 15.2961 9.38659 15.9463 10.4029 16.2239C11.7605 16.606 12.7236 16.9444 12.7236 17.8304C12.7236 18.5757 12.0944 19.0377 11.0817 19.0377C10.069 19.0377 9.03253 18.5795 8.24735 17.7829L8.22717 17.7639L8.06573 19.6556V19.6632L8.07124 19.667C8.87843 20.2412 9.89843 20.5435 11.0212 20.5435C11.9696 20.5435 12.7805 20.3002 13.3675 19.8401C13.9986 19.3457 14.3325 18.6194 14.3325 17.7411C14.3325 16.3988 13.5436 15.5356 11.9201 15.1059L11.9182 15.104Z" fill="white"/>
<path d="M20.3497 16.914C20.3497 15.5927 19.5884 14.7143 18.5023 14.7143C17.8529 14.7143 17.2292 15.0147 16.7797 15.7086V18.2088C17.2292 18.8115 17.8401 19.1119 18.5152 19.1119C19.5884 19.1119 20.3516 18.2354 20.3516 16.9121L20.3497 16.914ZM21.9109 16.914C21.9109 19.283 20.4506 20.5264 18.739 20.5264C17.9153 20.5264 17.2659 20.2127 16.7779 19.7678V22.5341H15.2296V13.4309H16.7779V14.1895C17.2897 13.6648 17.9887 13.2997 18.8509 13.2997C20.524 13.2997 21.9109 14.5432 21.9109 16.9121V16.914Z" fill="white"/>
<path d="M27.6805 16.1288C27.6805 15.277 27.1687 14.623 26.2184 14.623C25.3195 14.623 24.5453 15.2637 24.3453 16.3246H27.6548C27.6677 16.2581 27.6805 16.2068 27.6805 16.1288ZM29.0032 17.4369H24.3197C24.4939 18.5244 25.2571 19.1119 26.3046 19.1119C27.2035 19.1119 27.8401 18.8894 28.5519 18.4578L28.64 19.8857C28.0162 20.2526 27.2164 20.5264 26.1927 20.5264C24.294 20.5264 22.7328 19.283 22.7328 16.9387C22.7328 14.7656 24.3068 13.2997 26.1799 13.2997C28.0529 13.2997 29.139 14.5299 29.139 16.3246C29.139 16.6916 29.1023 17.0452 29.0014 17.4369H29.0032Z" fill="white"/>
<path d="M36.411 19.7944L36.5743 18.224C37.198 18.7868 38.0731 19.1138 38.9849 19.1138C39.6343 19.1138 40.0837 18.8267 40.0837 18.3419C40.0837 17.0452 36.5119 17.7125 36.5119 15.3835C36.5119 13.9823 37.6603 13.3016 39.0344 13.3016C39.9957 13.3016 40.7332 13.5507 41.2945 13.9176L41.2193 15.3702C40.557 14.8987 39.7572 14.6629 39.0454 14.6629C38.4969 14.6629 38.0456 14.8854 38.0456 15.3303C38.0456 16.4178 41.6302 15.893 41.6302 18.2886C41.6302 19.7678 40.3938 20.5264 38.9573 20.5264C37.8951 20.5264 37.0348 20.2393 36.4092 19.7925L36.411 19.7944Z" fill="white"/>
<path d="M46.8256 18.5111V17.4635C46.2642 17.281 45.7395 17.1631 45.1892 17.1631C44.3893 17.1631 43.916 17.5947 43.916 18.224C43.916 18.8533 44.4407 19.2716 45.1268 19.2716C45.7762 19.2716 46.2881 19.0358 46.8256 18.5111ZM48.3611 16.0756V20.3952H46.8256V19.688C46.3137 20.1975 45.6258 20.5264 44.8278 20.5264C43.3418 20.5264 42.4301 19.5834 42.4301 18.2753C42.4301 16.8741 43.4666 16.0242 45.0149 16.0242C45.602 16.0242 46.1633 16.1288 46.8256 16.3379V16.1288C46.8256 15.0679 46.0643 14.5964 45.114 14.5964C44.4022 14.5964 43.5913 14.8721 43.0153 15.355L42.9529 13.9405C43.4519 13.5868 44.3765 13.2997 45.3873 13.2997C47.1099 13.2997 48.3592 14.1382 48.3592 16.0756H48.3611Z" fill="white"/>
<path d="M48.4987 13.4329H50.1828L52.0907 17.8305L53.9857 13.4329H55.6698L52.5144 20.3972H51.654L48.4987 13.4329Z" fill="white"/>
<path d="M60.4047 16.1288C60.4047 15.277 59.8929 14.623 58.9445 14.623C58.0455 14.623 57.2714 15.2637 57.0714 16.3246H60.3809C60.3937 16.2581 60.4047 16.2068 60.4047 16.1288ZM61.7274 17.4369H57.0457C57.22 18.5244 57.9832 19.1119 59.0307 19.1119C59.9296 19.1119 60.5662 18.8894 61.278 18.4578L61.3642 19.8857C60.7405 20.2526 59.9406 20.5264 58.9169 20.5264C57.0182 20.5264 55.457 19.283 55.457 16.9387C55.457 14.7656 57.0311 13.2997 58.9041 13.2997C60.7772 13.2997 61.8632 14.5299 61.8632 16.3246C61.8632 16.6916 61.8247 17.0452 61.7256 17.4369H61.7274Z" fill="white"/>
<path d="M67.5503 13.602L67.3375 15.0945C66.9632 14.8854 66.6128 14.8074 66.2257 14.8074C65.5396 14.8074 64.9141 15.1744 64.4646 15.933V20.3971H62.9163V13.4328H64.4646V14.3758C64.9012 13.7351 65.5378 13.3016 66.4129 13.3016C66.8385 13.3016 67.1999 13.4062 67.5484 13.602H67.5503Z" fill="white"/>
<path d="M67.996 19.7944L68.1575 18.224C68.7812 18.7868 69.6563 19.1138 70.568 19.1138C71.2175 19.1138 71.6669 18.8267 71.6669 18.3419C71.6669 17.0452 68.0951 17.7125 68.0951 15.3835C68.0951 13.9823 69.2435 13.3016 70.6176 13.3016C71.5789 13.3016 72.3163 13.5507 72.8777 13.9176L72.8025 15.3702C72.1402 14.8987 71.3422 14.6629 70.6304 14.6629C70.0801 14.6629 69.6306 14.8854 69.6306 15.3303C69.6306 16.4178 73.2134 15.893 73.2134 18.2886C73.2134 19.7678 71.977 20.5264 70.5405 20.5264C69.4802 20.5264 68.6179 20.2393 67.9942 19.7925L67.996 19.7944Z" fill="white"/>
<path d="M35.2773 18.4902C34.7416 18.8932 34.1986 19.1138 33.562 19.1138C32.4888 19.1138 31.5513 18.3286 31.5513 16.914C31.5513 15.4995 32.4888 14.7143 33.562 14.7143C34.1986 14.7143 34.7416 14.9348 35.2773 15.3284C35.3451 14.8417 35.446 14.3625 35.5745 13.8891C35.0204 13.5488 34.349 13.2997 33.3987 13.2997C31.5 13.2997 29.9645 14.6477 29.9645 16.914C29.9645 19.1803 31.5 20.5264 33.3987 20.5264C34.3527 20.5264 35.0204 20.2488 35.5635 19.8933C35.4405 19.4313 35.3415 18.9636 35.2754 18.4902H35.2773Z" fill="white"/>
</g>
<defs>
<clipPath id="clip0_301_8013">
<rect width="80" height="32" fill="white" transform="translate(0.417603 0.913086)"/>
</clipPath>
</defs>
</svg>
