<svg width="91" height="26" viewBox="0 0 91 26" fill="none" xmlns="http://www.w3.org/2000/svg">
<g clip-path="url(#clip0_301_8151)">
<path d="M12.5183 23.8052C11.1575 24.0472 9.76275 24.1164 8.31696 24.3239L3.91154 11.236V24.8771L-0.000610352 25.4131V0.413086H3.6564L8.65715 14.5901V0.413086H12.5183V23.8052ZM20.0704 9.57629L25.2072 9.50714V13.4145L20.0704 13.4663V19.2755L26.8742 18.8605V22.6295L16.2263 23.4767V0.413086H26.8742V4.32042H20.0704V9.57629ZM41.162 4.32042H37.1818V22.2838L33.3377 22.3356V4.32042H29.3575V0.413086H41.162V4.32042ZM47.4044 9.29967H52.6603V13.207H47.4044V22.0763H43.6284V0.413086H54.3613V4.32042H47.4044V9.29967ZM60.6207 18.6531L67.1523 18.9988V22.8543L56.7766 22.3356V0.413086H60.6207V18.6531ZM70.3841 23.1136L74.1601 23.4076V0.413086H70.3841V23.1136ZM90.9994 0.413086L86.1177 12.308L90.9994 25.4131L86.679 24.7042L83.9235 17.4774L81.117 24.1164L76.9837 23.5977L81.9334 12.1524L77.46 0.413086H81.5932L84.1106 6.98293L86.7981 0.413086H90.9994Z" fill="#292524"/>
</g>
<defs>
<clipPath id="clip0_301_8151">
<rect width="91" height="25" fill="white" transform="translate(-0.000610352 0.413086)"/>
</clipPath>
</defs>
</svg>
