<svg width="86" height="16" viewBox="0 0 86 16" fill="none" xmlns="http://www.w3.org/2000/svg">
<g clip-path="url(#clip0_301_8031)">
<path fill-rule="evenodd" clip-rule="evenodd" d="M84.6301 12.5262C83.9123 12.5262 83.3307 13.1146 83.3307 13.8317C83.3307 14.5489 83.9123 15.1465 84.6301 15.1465C85.3479 15.1465 85.9204 14.5581 85.9204 13.8317C85.9204 13.1054 85.3434 12.5262 84.6301 12.5262ZM84.6301 14.9902C83.9986 14.9902 83.4897 14.4753 83.4897 13.8317C83.4897 13.1882 83.9986 12.6825 84.6301 12.6825C85.2616 12.6825 85.7659 13.1973 85.7659 13.8317C85.7659 14.4661 85.2571 14.9902 84.6301 14.9902Z" fill="#262626"/>
<path fill-rule="evenodd" clip-rule="evenodd" d="M85.298 13.4915C85.298 13.3674 85.2434 13.2387 85.1344 13.1743C85.0254 13.11 84.9027 13.1008 84.78 13.1008H84.1485V14.5672H84.3257V13.8915H84.6528L85.0662 14.5672H85.2752L84.8391 13.8915C85.098 13.8823 85.298 13.7765 85.298 13.4915ZM84.5983 13.7535H84.3257V13.2341H84.7391C84.9209 13.2341 85.1162 13.2617 85.1162 13.4869C85.1162 13.7857 84.8027 13.7489 84.5983 13.7489V13.7535Z" fill="#262626"/>
<path fill-rule="evenodd" clip-rule="evenodd" d="M85.7432 2.76676V0.960144H78.5103V2.76676H79.1782C79.7415 2.76676 79.9187 2.84951 79.9187 3.06097C79.9187 3.18509 79.8415 3.33219 79.687 3.54366L77.0383 6.40299C76.7021 6.79373 76.3386 6.75236 76.0433 6.43976L73.5445 3.68616C73.4173 3.52067 73.2129 3.35058 73.2129 3.13912C73.2129 2.88629 73.4945 2.76217 74.1579 2.76217H74.8121V0.960144H65.6483V2.76676C67.9199 2.76676 67.8064 2.97823 68.6242 3.94359L73.5581 9.46919V12.2642C73.5581 12.9767 73.1992 13.2295 72.1815 13.2295H70.6005V14.9718H80.732V13.2295H79.1509C78.1287 13.2295 77.7743 12.9767 77.7743 12.2642V9.46919L81.9632 4.89058C83.4943 2.93685 83.6987 2.77136 84.7982 2.77136H85.7477L85.7432 2.76676Z" fill="#262626"/>
<path fill-rule="evenodd" clip-rule="evenodd" d="M4.79579 4.1964C4.79579 3.08392 6.83117 2.32542 9.23911 2.32542C11.1064 2.32542 13.328 3.1207 14.3548 4.07228C14.9227 4.60093 15.5452 4.99168 15.7269 6.00302H17.7668V0.960111H15.5588C15.5633 2.11855 15.1226 2.08178 14.6547 1.77378C12.9646 0.803813 11.1973 0.518799 9.08918 0.518799C4.08704 0.518799 0.924927 2.32542 0.924927 5.20314C0.924927 8.08086 3.42372 8.75202 6.86298 9.27608L9.90697 9.78175C13.4916 10.3472 14.6047 10.6 14.6047 11.6527C14.6047 12.7054 13.478 13.4272 10.2068 13.4593C8.03514 13.4823 5.67264 12.8066 4.67767 11.8826C4.10521 11.3585 3.48279 11.0827 3.02846 9.75876H0.979446V14.9672H3.24654C3.34195 14.2362 3.56002 13.6524 4.07341 13.9512C5.71353 14.8338 8.48947 15.4085 10.3249 15.4085C15.6269 15.4085 18.5801 13.7076 18.5801 10.6598C18.5801 4.82159 4.79579 7.27638 4.79579 4.1918V4.1964Z" fill="#262626"/>
<path fill-rule="evenodd" clip-rule="evenodd" d="M56.0121 2.80812H57.2796C58.3609 2.80812 58.738 3.06095 58.738 3.79647L58.6926 9.40021L49.9104 1.06586H42.6594V2.80812H44.0496C45.1309 2.80812 45.508 3.06095 45.508 3.79647V12.3653C45.508 13.0778 45.1309 13.3536 44.0496 13.3536H42.6594V15.0775H51.0417V13.3536H49.6379C48.5566 13.3536 48.1795 13.0824 48.1795 12.3653V5.24453L58.4109 15.0499L61.573 15.0729V3.79647C61.573 3.06095 61.9501 2.80812 63.0314 2.80812H64.0854V1.06586H56.0121V2.80812Z" fill="#262626"/>
<path fill-rule="evenodd" clip-rule="evenodd" d="M31.651 0.413105C25.2178 0.413105 21.1879 3.29082 21.1879 7.91081C21.1879 12.5308 25.1587 15.3028 31.4557 15.3028C38.1388 15.3028 42.0279 12.4894 42.0279 7.67636C42.0279 3.35059 37.8299 0.408508 31.651 0.408508V0.413105ZM31.5057 13.4778C27.9437 13.4778 25.8947 11.3999 25.8947 7.80508C25.8947 4.21022 28.0301 2.21972 31.6828 2.21972C35.3356 2.21972 37.2302 4.34354 37.2302 7.95218C37.2302 11.5608 35.1539 13.4778 31.5011 13.4778H31.5057Z" fill="#262626"/>
</g>
<defs>
<clipPath id="clip0_301_8031">
<rect width="85" height="15" fill="white" transform="translate(0.924927 0.413086)"/>
</clipPath>
</defs>
</svg>
