<svg width="61" height="31" viewBox="0 0 61 31" fill="none" xmlns="http://www.w3.org/2000/svg">
<g clip-path="url(#clip0_301_8028)">
<path d="M8.29656 5.48374C9.02705 2.64628 6.08137 0.287997 3.37285 1.05843C0.892023 1.41077 -0.00448999 4.18715 0.607416 6.32934C1.68892 9.94662 8.25387 9.45806 8.29656 5.48374Z" fill="#292524"/>
<path d="M55.66 11.3234C54.2465 15.7064 52.8993 20.2726 50.2335 24.0919C48.1227 20.9162 46.8467 17.1909 44.2283 14.3581C43.9864 9.29861 36.5818 11.0556 35.9747 14.9265C36.3399 16.4298 37.2032 17.764 37.9812 19.0888C37.9906 20.9256 37.6633 22.8658 36.3589 24.2657C32.6969 28.1226 24.2536 26.0838 24.894 20.0471C24.9983 18.6989 24.9177 17.3459 24.9034 15.9929C27.1186 16.6271 29.4382 16.3735 31.7056 16.397C31.7672 14.7809 31.7672 13.1602 31.7198 11.5395C29.4382 11.4831 27.1518 11.6381 24.8797 11.4314C24.7849 9.00735 25.3019 6.45646 24.6094 4.10287C22.7215 2.59958 18.8366 2.40697 17.2902 4.43171C17.1337 10.4684 17.1242 16.552 17.2949 22.5886C16.4886 26.3938 10.4976 27.7468 8.74249 24.0449C7.67521 19.9438 8.74249 15.603 8.13058 11.4314C5.59283 11.5254 3.04085 11.3046 0.517332 11.5911C0.531562 15.3493 0.408232 19.1123 0.578997 22.8658C0.825657 26.3046 3.46776 29.3064 6.83562 30.1192C11.3277 31.4345 16.887 31.1386 20.492 27.9159C26.8198 32.3506 37.4831 32.2144 41.8139 25.116C43.1278 26.6522 43.9484 28.5783 45.4236 29.9782C47.9092 31.505 51.8842 31.1668 53.2741 28.3152C56.1913 23.3309 59.3362 18.1351 60.4225 12.4461C58.8998 11.8401 57.3297 11.2576 55.66 11.3234Z" fill="#292524"/>
</g>
<defs>
<clipPath id="clip0_301_8028">
<rect width="60" height="30" fill="white" transform="translate(0.422485 0.913086)"/>
</clipPath>
</defs>
</svg>
