<svg width="128" height="27" viewBox="0 0 128 27" fill="none" xmlns="http://www.w3.org/2000/svg">
<path d="M25.6143 2.10136C22.5797 0.205355 18.5848 0.657065 15.0217 2.89589C11.47 0.657065 7.47258 0.205355 4.44176 2.10136C-0.352632 5.09747 -0.93549 12.8138 3.14099 19.337C6.1459 24.1463 10.845 26.9643 15.028 26.9123C19.211 26.9643 23.91 24.1463 26.9149 19.3371C30.9866 12.8138 30.4087 5.09755 25.6143 2.10136ZM5.34518 17.9596C4.50458 16.6271 3.87035 15.1751 3.464 13.6528C3.10302 12.3315 2.96501 10.9592 3.05565 9.5924C3.23765 7.1816 4.219 5.30417 5.81792 4.30547C7.41691 3.30676 9.53071 3.24612 11.7818 4.1396C12.1197 4.2745 12.4539 4.4305 12.7855 4.60248C11.5346 5.74312 10.4468 7.05076 9.55296 8.48847C7.07777 12.4487 6.32285 16.8557 7.18674 20.3692C6.49793 19.6262 5.88131 18.8194 5.34518 17.9596ZM26.5932 13.6517C26.1864 15.1737 25.5522 16.6257 24.7121 17.9585C24.1755 18.8194 23.5589 19.6278 22.8705 20.373C23.6429 17.2233 23.118 13.3645 21.2246 9.74588C21.1943 9.68627 21.1519 9.63368 21.1001 9.59149C21.0482 9.5493 20.9881 9.51846 20.9236 9.50096C20.8591 9.48346 20.7916 9.47969 20.7256 9.4899C20.6595 9.5001 20.5964 9.52406 20.5401 9.56021L14.6369 13.2482C14.5831 13.2818 14.5364 13.3257 14.4995 13.3774C14.4627 13.429 14.4364 13.4875 14.4221 13.5493C14.4079 13.6111 14.4059 13.6752 14.4165 13.7378C14.427 13.8004 14.4498 13.8603 14.4835 13.914L15.3498 15.2989C15.3833 15.3527 15.4271 15.3994 15.4786 15.4362C15.5302 15.4731 15.5885 15.4994 15.6502 15.5136C15.7119 15.5279 15.7759 15.5298 15.8384 15.5193C15.9009 15.5087 15.9607 15.486 16.0143 15.4523L19.8409 13.0613C19.9647 13.4326 20.0884 13.8039 20.1813 14.1752C20.5422 15.4948 20.6806 16.8654 20.5909 18.2307C20.4089 20.6403 19.4276 22.5177 17.8287 23.5177C17.0039 24.0219 16.0589 24.2954 15.0923 24.3097H14.9699C14.0033 24.2957 13.0582 24.0222 12.2336 23.5177C10.6333 22.5177 9.65191 20.6402 9.47007 18.2307C9.37996 16.8639 9.51796 15.4916 9.87842 14.1701C10.7078 11.1129 12.4223 8.36896 14.8065 6.28314C15.8346 5.38065 17.0057 4.6554 18.2717 4.13708C20.5167 3.24352 22.6341 3.30294 24.2344 4.30294C25.8346 5.30287 26.8147 7.179 26.9966 9.58988C27.0884 10.9568 26.9521 12.3295 26.5932 13.6517ZM57.0649 10.7718C53.9609 10.7718 51.4524 13.195 51.4524 16.2778C51.4524 19.3395 53.961 21.7231 57.0649 21.7231C60.1897 21.7231 62.6983 19.3433 62.6983 16.2778C62.6983 13.1962 60.1934 10.773 57.0649 10.773V10.7718ZM57.0649 18.8446C55.6342 18.8446 54.5452 17.6874 54.5452 16.2568C54.5452 14.8261 55.6342 13.6517 57.0649 13.6517C58.5165 13.6517 59.6056 14.8299 59.6056 16.2605C59.6056 17.6912 58.5165 18.8495 57.0649 18.8495V18.8446ZM69.6968 6.54284H63.9854C63.9237 6.54172 63.8624 6.55307 63.8052 6.57621C63.748 6.59935 63.6961 6.6338 63.6525 6.6775C63.6089 6.72119 63.5747 6.77323 63.5517 6.8305C63.5287 6.88776 63.5176 6.94908 63.5189 7.01076V20.9347C63.5144 20.9985 63.5232 21.0624 63.5447 21.1226C63.5662 21.1828 63.5999 21.2379 63.6437 21.2844C63.6876 21.3309 63.7405 21.3678 63.7993 21.3928C63.8581 21.4179 63.9215 21.4304 63.9854 21.4298H69.6968C74.2672 21.4298 77.4428 18.3902 77.4428 13.9684C77.4428 9.51937 74.2672 6.54284 69.6968 6.54284ZM69.8317 18.4893H66.7069V9.47609H69.8317C72.3614 9.47609 74.1051 11.3683 74.1051 13.9623C74.1051 16.513 72.3613 18.4893 69.8317 18.4893ZM88.8112 11.0713H86.6639C86.5451 11.0807 86.434 11.1336 86.3518 11.2199C86.2696 11.3063 86.2221 11.4199 86.2185 11.539V12.1764C85.7296 11.3683 84.6245 10.773 83.2483 10.773C80.5702 10.773 78.0616 12.8769 78.0616 16.2369C78.0616 19.5784 80.5479 21.7206 83.2273 21.7206C84.6083 21.7206 85.7358 21.1266 86.2247 20.3184V20.9769C86.2254 21.0949 86.2725 21.208 86.3559 21.2916C86.4392 21.3752 86.5522 21.4226 86.6702 21.4236H88.8174C88.8765 21.425 88.9352 21.4143 88.99 21.3924C89.0448 21.3704 89.0946 21.3375 89.1364 21.2957C89.1781 21.254 89.211 21.2042 89.233 21.1494C89.2549 21.0945 89.2655 21.0358 89.2642 20.9768V11.5391C89.266 11.4784 89.2556 11.418 89.2337 11.3614C89.2117 11.3048 89.1787 11.2532 89.1365 11.2096C89.0942 11.166 89.0437 11.1313 88.9878 11.1075C88.932 11.0838 88.8719 11.0714 88.8112 11.0713ZM83.8163 18.868C82.3944 18.868 81.3263 17.7752 81.3263 16.2592C81.3263 14.7431 82.3944 13.6515 83.8163 13.6515C85.2383 13.6515 86.3064 14.7419 86.3064 16.2579C86.3064 17.774 85.2396 18.8667 83.8163 18.8667V18.868ZM100.864 6.54291H98.7168C98.6567 6.54109 98.5968 6.55126 98.5407 6.57282C98.4846 6.59438 98.4333 6.62691 98.3898 6.6685C98.3464 6.71009 98.3117 6.75992 98.2877 6.81507C98.2637 6.87022 98.251 6.9296 98.2502 6.98973V12.1343C97.7552 11.3683 96.6339 10.773 95.2318 10.773C92.5734 10.773 90.1083 12.8769 90.1083 16.2369C90.1083 19.5784 92.5945 21.7206 95.2738 21.7206C96.655 21.7206 97.697 21.1266 98.2712 20.3184V20.9769C98.2716 21.095 98.3186 21.2083 98.402 21.292C98.4855 21.3757 98.5986 21.423 98.7168 21.4236H100.864C100.923 21.4251 100.982 21.4146 101.037 21.3927C101.092 21.3707 101.141 21.3379 101.183 21.2961C101.225 21.2543 101.258 21.2044 101.28 21.1495C101.302 21.0946 101.312 21.0359 101.311 20.9768V6.99225C101.313 6.93295 101.302 6.87389 101.281 6.81868C101.259 6.76348 101.226 6.7133 101.184 6.67124C101.142 6.62917 101.092 6.59609 101.037 6.57404C100.982 6.55198 100.923 6.54134 100.864 6.54291ZM95.8691 18.894C94.4534 18.894 93.394 17.79 93.394 16.2579C93.394 14.7258 94.457 13.6219 95.8691 13.6219C97.2812 13.6219 98.3443 14.7258 98.3443 16.2579C98.3443 17.79 97.2861 18.894 95.8691 18.894ZM112.914 6.54291H110.771C110.711 6.5411 110.651 6.55127 110.595 6.57282C110.538 6.59437 110.487 6.62688 110.443 6.66845C110.4 6.71003 110.365 6.75984 110.341 6.81499C110.317 6.87015 110.304 6.92954 110.303 6.98973V12.1343C109.814 11.3683 108.687 10.773 107.285 10.773C104.626 10.773 102.161 12.8769 102.161 16.2369C102.161 19.5784 104.649 21.7206 107.327 21.7206C108.709 21.7206 109.75 21.1266 110.324 20.3184V20.9769C110.325 21.0951 110.372 21.2084 110.456 21.292C110.539 21.3756 110.653 21.4229 110.771 21.4236H112.914C112.973 21.4251 113.032 21.4146 113.087 21.3927C113.142 21.3708 113.192 21.3379 113.233 21.2961C113.275 21.2543 113.308 21.2044 113.329 21.1495C113.351 21.0946 113.362 21.0358 113.36 20.9768V6.99225C113.362 6.93302 113.352 6.87399 113.33 6.8188C113.309 6.76362 113.276 6.71343 113.234 6.67135C113.192 6.62926 113.143 6.59616 113.088 6.57409C113.033 6.55202 112.974 6.54136 112.914 6.54291ZM107.919 18.894C106.502 18.894 105.444 17.79 105.444 16.2579C105.444 14.7258 106.507 13.6219 107.919 13.6219C109.332 13.6219 110.395 14.7258 110.395 16.2579C110.395 17.79 109.339 18.894 107.923 18.894H107.919ZM124.671 11.7952L121.467 22.7837C120.848 24.739 119.469 25.9086 117.321 25.9086C116.345 25.9086 115.456 25.7093 114.76 25.3108C114.354 25.0794 114.017 24.8677 114.017 24.5287C114.017 24.3183 114.085 24.2093 114.209 24.0126L114.845 23.0597C115.024 22.7936 115.157 22.7069 115.35 22.7069C115.503 22.7107 115.651 22.7622 115.773 22.8542C116.173 23.1129 116.544 23.3357 117.11 23.3357C117.771 23.3357 118.276 23.124 118.548 22.337L118.823 21.4248H117.526C117.206 21.4248 117.031 21.2343 116.951 20.9781L114.084 11.7952C113.977 11.4338 114.075 11.0725 114.606 11.0725H116.865C117.141 11.0725 117.334 11.1665 117.455 11.5613L119.572 18.9558L121.553 11.5613C121.616 11.3064 121.787 11.0725 122.127 11.0725H124.269C124.691 11.0713 124.818 11.3683 124.671 11.7952ZM50.6432 15.0637V20.9336C50.6441 20.9976 50.6323 21.0611 50.6082 21.1204C50.5842 21.1797 50.5485 21.2336 50.5032 21.2788C50.458 21.324 50.4041 21.3597 50.3448 21.3838C50.2855 21.4078 50.222 21.4197 50.158 21.4187H48.3858C48.3217 21.4199 48.2581 21.4081 48.1987 21.3842C48.1394 21.3602 48.0854 21.3245 48.0401 21.2792C47.9948 21.2339 47.9591 21.18 47.9352 21.1206C47.9112 21.0612 47.8995 20.9976 47.9006 20.9336V19.3928C46.7757 20.8136 44.819 21.7083 42.6063 21.7083C38.4505 21.7083 35.2031 18.5822 35.2031 14.1318C35.2031 9.50698 38.7091 6.31901 43.1385 6.31901C46.4081 6.31901 49.0219 7.72492 50.1828 10.5528C50.2153 10.6275 50.2333 10.7077 50.236 10.7891C50.236 10.9228 50.148 11.0243 49.8647 11.122L47.7954 11.919C47.6706 11.9708 47.5307 11.973 47.4044 11.9252C47.2936 11.8598 47.2068 11.7604 47.1569 11.6418C46.4144 10.2298 45.0926 9.27061 43.058 9.27061C40.4195 9.27061 38.5297 11.3312 38.5297 14.0031C38.5297 16.5934 40.1385 18.7233 43.1335 18.7233C44.7089 18.7233 45.9651 17.9807 46.5505 17.1652H44.6815C44.6176 17.1662 44.554 17.1543 44.4947 17.1302C44.4354 17.1062 44.3815 17.0705 44.3363 17.0253C44.291 16.98 44.2554 16.9261 44.2313 16.8668C44.2073 16.8075 44.1954 16.744 44.1964 16.68V15.0848C44.1954 15.0208 44.2073 14.9573 44.2313 14.898C44.2554 14.8387 44.2911 14.7848 44.3363 14.7396C44.3816 14.6943 44.4354 14.6586 44.4947 14.6346C44.554 14.6106 44.6176 14.5987 44.6815 14.5997H50.1578C50.2206 14.5965 50.2834 14.6061 50.3423 14.628C50.4012 14.6499 50.4551 14.6836 50.5005 14.727C50.5459 14.7705 50.582 14.8228 50.6065 14.8807C50.631 14.9386 50.6436 15.0008 50.6432 15.0637ZM124.73 8.89813V8.75582C124.729 8.7458 124.733 8.73606 124.739 8.72859C124.747 8.72219 124.756 8.71865 124.765 8.71865H125.67C125.675 8.71849 125.68 8.71928 125.684 8.72099C125.689 8.7227 125.693 8.72528 125.696 8.72859C125.703 8.73605 125.706 8.7458 125.706 8.75582V8.89805C125.706 8.90761 125.702 8.9168 125.696 8.92405C125.693 8.92736 125.689 8.92994 125.684 8.93165C125.68 8.93336 125.675 8.93415 125.67 8.93399H125.34V9.82632C125.339 9.83608 125.335 9.84535 125.328 9.85224C125.322 9.85913 125.312 9.86313 125.303 9.86341H125.132C125.127 9.86341 125.122 9.86241 125.118 9.8605C125.114 9.85859 125.11 9.85581 125.107 9.85232C125.104 9.84894 125.101 9.8449 125.099 9.84044C125.097 9.83597 125.096 9.83118 125.096 9.82632V8.93399H124.765C124.761 8.93437 124.756 8.9337 124.751 8.93203C124.747 8.93036 124.743 8.92772 124.739 8.92431C124.736 8.92089 124.733 8.91677 124.731 8.91224C124.73 8.90771 124.729 8.90294 124.73 8.89813ZM126.311 8.75084L126.559 9.32384L126.806 8.75084C126.81 8.74067 126.817 8.73199 126.826 8.72607C126.836 8.72074 126.848 8.71818 126.859 8.71865H127.147C127.151 8.7183 127.156 8.71895 127.16 8.72056C127.165 8.72216 127.169 8.72469 127.172 8.72797C127.176 8.73124 127.178 8.7352 127.18 8.73958C127.182 8.74396 127.183 8.74866 127.182 8.75337V9.82755C127.183 9.83225 127.182 9.83699 127.181 9.84143C127.179 9.84587 127.176 9.8499 127.173 9.85324C127.17 9.85662 127.166 9.85927 127.162 9.86102C127.157 9.86277 127.152 9.86359 127.148 9.86341H126.987C126.982 9.86358 126.977 9.86278 126.973 9.86107C126.968 9.85937 126.964 9.85678 126.961 9.85347C126.957 9.85013 126.955 9.84607 126.953 9.84157C126.951 9.83708 126.951 9.83226 126.951 9.82747V9.01688L126.685 9.60601C126.681 9.61713 126.674 9.62698 126.665 9.63446C126.655 9.64011 126.643 9.64269 126.632 9.64188H126.501C126.489 9.64247 126.478 9.6399 126.468 9.63446C126.459 9.62734 126.452 9.61737 126.449 9.60601L126.184 9.01696V9.82755C126.184 9.83711 126.18 9.8463 126.174 9.85355C126.167 9.8596 126.158 9.86311 126.149 9.86349H125.984C125.98 9.86352 125.976 9.86266 125.972 9.86095C125.968 9.85924 125.964 9.85672 125.961 9.85355C125.957 9.85021 125.955 9.84614 125.953 9.84165C125.951 9.83716 125.951 9.83234 125.951 9.82755V8.75329C125.951 8.74858 125.952 8.74389 125.953 8.73951C125.955 8.73514 125.958 8.73119 125.961 8.72791C125.965 8.72464 125.969 8.72212 125.973 8.72052C125.978 8.71893 125.982 8.71829 125.987 8.71865H126.265C126.277 8.71835 126.288 8.7209 126.298 8.72607C126.304 8.73285 126.309 8.74145 126.311 8.75084Z" fill="#262626"/>
</svg>
