<svg width="81" height="36" viewBox="0 0 81 36" fill="none" xmlns="http://www.w3.org/2000/svg">
<path d="M30.3011 21.9843H28.7422V14.0094H31.0613L33.0968 20.3867L35.1195 14.0094H37.4385V21.9843H35.8281V16.0708L33.96 21.9843H32.2208L30.3011 16.0321V21.9843ZM40.8913 21.9843H39.2422V14.0094H40.8913V21.9843ZM44.2925 21.9843H42.7079V14.0094H44.6533L47.8355 19.7941V14.0094H49.4201V21.9843H47.4748L44.2925 16.2254V21.9843ZM52.8858 21.9843H51.2367V14.0094H52.8858V21.9843ZM64.5968 24.9217H57.0343C57.4336 23.9812 57.7557 23.0021 58.0005 21.9843H67.5471L70.0723 19.4591H58.3999C58.4386 18.9695 58.4643 18.48 58.4643 17.9904C58.4643 17.5008 58.4386 17.0113 58.3999 16.5217H73.0097L75.5349 13.9965H58.0005C57.7686 12.9787 57.4465 11.9996 57.0343 11.0591H78.4594L80.9846 8.53395H55.6944C52.5637 3.61248 47.0625 0.340088 40.8011 0.340088C34.5527 0.340088 29.0514 3.61248 25.9208 8.53395H0.643463L3.15573 11.0591H24.5938C24.1944 11.9996 23.8723 12.9787 23.6275 13.9965H6.09316L8.60543 16.5217H23.2281C23.1895 17.0113 23.1637 17.5008 23.1637 17.9904C23.1637 18.48 23.1895 18.9695 23.2281 19.4591H11.5557L14.068 21.9843H23.6146C23.8465 23.0021 24.1686 23.9812 24.5809 24.9217H17.0054L19.5177 27.4468H25.9079C29.0386 32.3683 34.5398 35.6407 40.7882 35.6407C47.0367 35.6407 52.5379 32.3683 55.6815 27.4468H62.0717L64.5968 24.9217ZM40.814 33.1155C32.4784 33.1155 25.6889 26.326 25.6889 17.9904C25.6889 9.65481 32.4784 2.86524 40.814 2.86524C49.1496 2.86524 55.9392 9.65481 55.9392 17.9904C55.9392 26.326 49.1496 33.1155 40.814 33.1155Z" fill="#262626"/>
</svg>
